<svg xmlns="http://www.w3.org/2000/svg" viewBox="0 0 512 512">
  <defs>
    <linearGradient id="blueGrad" x1="0%" y1="0%" x2="100%" y2="100%">
      <stop offset="0%" style="stop-color:#3B82F6"/>
      <stop offset="100%" style="stop-color:#1D4ED8"/>
    </linearGradient>
  </defs>
  
  <!-- Sfondo quadrato arrotondato -->
  <rect x="32" y="32" width="448" height="448" rx="88" fill="url(#blueGrad)"/>
  
  <!-- Globo semplificato -->
  <circle cx="256" cy="256" r="150" fill="none" stroke="rgba(255,255,255,0.25)" stroke-width="4"/>
  <ellipse cx="256" cy="256" rx="150" ry="55" fill="none" stroke="rgba(255,255,255,0.2)" stroke-width="3"/>
  <path d="M 256 106 Q 330 256 256 406" fill="none" stroke="rgba(255,255,255,0.2)" stroke-width="3"/>
  <path d="M 256 106 Q 182 256 256 406" fill="none" stroke="rgba(255,255,255,0.2)" stroke-width="3"/>
  
  <!-- Anello singolo -->
  <ellipse cx="256" cy="256" rx="190" ry="45" fill="none" stroke="rgba(255,255,255,0.6)" stroke-width="14" transform="rotate(-25, 256, 256)"/>
  
  <!-- Cerchio G -->
  <circle cx="256" cy="256" r="85" fill="rgba(29,78,216,0.9)"/>
  
  <!-- G bianca -->
  <path 
    d="M 300 225 
       A 58 58 0 1 0 300 287 
       L 265 287 
       L 265 262 
       L 285 262 
       L 285 250 
       L 242 250 
       L 242 305 
       A 75 75 0 1 1 318 210 
       L 300 225 Z"
    fill="white"
  />
  
  <!-- Punti -->
  <circle cx="130" cy="200" r="5" fill="white" opacity="0.7"/>
  <circle cx="382" cy="312" r="4" fill="white" opacity="0.6"/>
</svg>
