<svg xmlns="http://www.w3.org/2000/svg" viewBox="0 0 1200 675">
  <defs>
    <linearGradient id="bgGrad" x1="0%" y1="0%" x2="100%" y2="100%">
      <stop offset="0%" style="stop-color:#0f172a"/>
      <stop offset="100%" style="stop-color:#1e293b"/>
    </linearGradient>
    <linearGradient id="accentGrad" x1="0%" y1="0%" x2="100%" y2="100%">
      <stop offset="0%" style="stop-color:#0284c7"/>
      <stop offset="100%" style="stop-color:#10b981"/>
    </linearGradient>
  </defs>
  
  <!-- Background -->
  <rect width="1200" height="675" fill="url(#bgGrad)"/>
  
  <!-- Sidebar -->
  <rect x="0" y="0" width="240" height="675" fill="#020617"/>
  <rect x="20" y="20" width="200" height="40" rx="8" fill="url(#accentGrad)" opacity="0.8"/>
  <text x="120" y="47" font-family="Arial" font-size="14" fill="white" text-anchor="middle" font-weight="600">GameStringer</text>
  
  <!-- Sidebar items -->
  <rect x="20" y="80" width="200" height="36" rx="6" fill="#1e293b"/>
  <rect x="20" y="124" width="200" height="36" rx="6" fill="#334155"/>
  <rect x="20" y="168" width="200" height="36" rx="6" fill="#1e293b"/>
  <rect x="20" y="212" width="200" height="36" rx="6" fill="#1e293b"/>
  <rect x="20" y="256" width="200" height="36" rx="6" fill="#1e293b"/>
  
  <!-- Main content area -->
  <rect x="260" y="20" width="920" height="60" rx="8" fill="#1e293b"/>
  <text x="280" y="57" font-family="Arial" font-size="18" fill="white" font-weight="600">Library - 613 Games</text>
  
  <!-- Search bar -->
  <rect x="700" y="32" width="200" height="36" rx="6" fill="#0f172a" stroke="#334155"/>
  <text x="720" y="55" font-family="Arial" font-size="12" fill="#64748b">Search games...</text>
  
  <!-- Game cards grid -->
  <g transform="translate(260, 100)">
    <!-- Row 1 -->
    <rect x="0" y="0" width="220" height="140" rx="8" fill="#1e293b"/>
    <rect x="0" y="0" width="220" height="90" rx="8" fill="#334155"/>
    <text x="10" y="110" font-family="Arial" font-size="12" fill="white" font-weight="500">Hollow Knight</text>
    <text x="10" y="128" font-family="Arial" font-size="10" fill="#64748b">Unity • 12.4K strings</text>
    
    <rect x="235" y="0" width="220" height="140" rx="8" fill="#1e293b"/>
    <rect x="235" y="0" width="220" height="90" rx="8" fill="#475569"/>
    <text x="245" y="110" font-family="Arial" font-size="12" fill="white" font-weight="500">Stardew Valley</text>
    <text x="245" y="128" font-family="Arial" font-size="10" fill="#64748b">MonoGame • 8.2K strings</text>
    
    <rect x="470" y="0" width="220" height="140" rx="8" fill="#1e293b"/>
    <rect x="470" y="0" width="220" height="90" rx="8" fill="#334155"/>
    <text x="480" y="110" font-family="Arial" font-size="12" fill="white" font-weight="500">Celeste</text>
    <text x="480" y="128" font-family="Arial" font-size="10" fill="#64748b">C# • 5.1K strings</text>
    
    <rect x="705" y="0" width="220" height="140" rx="8" fill="#1e293b"/>
    <rect x="705" y="0" width="220" height="90" rx="8" fill="#475569"/>
    <text x="715" y="110" font-family="Arial" font-size="12" fill="white" font-weight="500">Hades</text>
    <text x="715" y="128" font-family="Arial" font-size="10" fill="#64748b">Custom • 18.7K strings</text>
    
    <!-- Row 2 -->
    <rect x="0" y="155" width="220" height="140" rx="8" fill="#1e293b"/>
    <rect x="0" y="155" width="220" height="90" rx="8" fill="#475569"/>
    <text x="10" y="265" font-family="Arial" font-size="12" fill="white" font-weight="500">Undertale</text>
    <text x="10" y="283" font-family="Arial" font-size="10" fill="#64748b">GameMaker • 6.3K strings</text>
    
    <rect x="235" y="155" width="220" height="140" rx="8" fill="#1e293b"/>
    <rect x="235" y="155" width="220" height="90" rx="8" fill="#334155"/>
    <text x="245" y="265" font-family="Arial" font-size="12" fill="white" font-weight="500">Disco Elysium</text>
    <text x="245" y="283" font-family="Arial" font-size="10" fill="#64748b">Unity • 1.2M strings</text>
    
    <rect x="470" y="155" width="220" height="140" rx="8" fill="#1e293b"/>
    <rect x="470" y="155" width="220" height="90" rx="8" fill="#475569"/>
    <text x="480" y="265" font-family="Arial" font-size="12" fill="white" font-weight="500">Baldur's Gate 3</text>
    <text x="480" y="283" font-family="Arial" font-size="10" fill="#64748b">Divinity • 2.1M strings</text>
    
    <rect x="705" y="155" width="220" height="140" rx="8" fill="#1e293b"/>
    <rect x="705" y="155" width="220" height="90" rx="8" fill="#334155"/>
    <text x="715" y="265" font-family="Arial" font-size="12" fill="white" font-weight="500">Elden Ring</text>
    <text x="715" y="283" font-family="Arial" font-size="10" fill="#64748b">Custom • 45K strings</text>
    
    <!-- Row 3 -->
    <rect x="0" y="310" width="220" height="140" rx="8" fill="#1e293b"/>
    <rect x="0" y="310" width="220" height="90" rx="8" fill="#334155"/>
    
    <rect x="235" y="310" width="220" height="140" rx="8" fill="#1e293b"/>
    <rect x="235" y="310" width="220" height="90" rx="8" fill="#475569"/>
    
    <rect x="470" y="310" width="220" height="140" rx="8" fill="#1e293b"/>
    <rect x="470" y="310" width="220" height="90" rx="8" fill="#334155"/>
    
    <rect x="705" y="310" width="220" height="140" rx="8" fill="#1e293b"/>
    <rect x="705" y="310" width="220" height="90" rx="8" fill="#475569"/>
  </g>
  
  <!-- Status bar -->
  <rect x="260" y="635" width="920" height="30" rx="4" fill="#0f172a"/>
  <circle cx="280" cy="650" r="5" fill="#22c55e"/>
  <text x="295" y="654" font-family="Arial" font-size="11" fill="#64748b">Connected • 613 games loaded • Ollama ready</text>
</svg>
